<?xml version="1.0" encoding="utf-8"?>
<!-- Generator: Adobe Illustrator 16.0.0, SVG Export Plug-In . SVG Version: 6.00 Build 0)  -->
<!DOCTYPE svg PUBLIC "-//W3C//DTD SVG 1.1//EN" "http://www.w3.org/Graphics/SVG/1.1/DTD/svg11.dtd">
<svg version="1.1" id="Layer_1" xmlns="http://www.w3.org/2000/svg" xmlns:xlink="http://www.w3.org/1999/xlink" x="0px" y="0px"
	 width="12px" height="13px" viewBox="0 0 12 13" enable-background="new 0 0 12 13" xml:space="preserve">
<path fill="#515151" d="M0.211,6.663C0.119,6.571,0.074,6.435,0.074,6.343c0-0.091,0.045-0.229,0.137-0.32l0.64-0.64
	c0.184-0.183,0.458-0.183,0.64,0L1.538,5.43l2.515,2.697c0.092,0.094,0.229,0.094,0.321,0l6.13-6.358l0.032-0.026l0.039-0.037
	c0.186-0.183,0.432-0.12,0.613,0.063l0.64,0.642c0.183,0.184,0.183,0.457,0,0.64l0,0l-7.317,7.592
	c-0.093,0.092-0.184,0.139-0.321,0.139s-0.228-0.047-0.319-0.139L0.302,6.8L0.211,6.663z"/>
</svg>
